 <svg  version="1.0" xmlns="http://www.w3.org/2000/svg"  width="450.000000pt" height="402.000000pt" viewBox="0 0 450.000000 402.000000"  preserveAspectRatio="xMidYMid meet">  <g transform="translate(0.000000,402.000000) scale(0.100000,-0.100000)" fill="#3e5df9" stroke="none"> <path d="M0 2010 l0 -2010 2250 0 2250 0 0 2010 0 2010 -2250 0 -2250 0 0 -2010z m2528 1235 c301 -58 592 -241 780 -490 50 -67 142 -231 142 -254 0 -27 -17 -5 -47 58 -74 157 -237 350 -383 453 -509 357 -1163 304 -1600 -132 -99 -98 -200 -238 -242 -337 -13 -29 -28 -53 -35 -53 -14 0 21 83 68 161 204 336 548 560 932 609 92 11 286 4 385 -15z m-200 -57 c17 -17 15 -53 -3 -68 -22 -19 -21 -150 1 -150 31 0 109 -51 133 -86 36 -52 41 -138 11 -199 -24 -51 -83 -100 -131 -110 -26 -6 -29 -11 -29 -46 0 -28 -4 -39 -15 -39 -11 0 -15 11 -15 39 0 34 -4 40 -27 45 -48 13 -113 66 -135 111 -21 42 -21 43 -57 33 -70 -20 -191 -90 -191 -111 0 -6 18 -26 41 -45 28 -25 37 -38 30 -45 -8 -8 -22 0 -49 26 -21 20 -43 37 -49 37 -7 0 -31 -22 -55 -50 -39 -45 -78 -65 -78 -41 0 6 25 37 55 69 l55 60 -62 61 -63 60 -53 -52 c-29 -29 -74 -85 -99 -125 -30 -46 -50 -69 -56 -63 -13 13 55 116 128 196 30 33 55 63 55 67 0 13 -53 48 -74 48 -27 0 -125 -103 -173 -184 l-38 -63 -33 14 -34 14 18 27 c39 62 117 153 189 221 129 122 278 207 452 256 86 24 231 47 246 38 21 -12 -1 -22 -72 -32 -44 -7 -113 -21 -153 -32 -86 -24 -255 -103 -316 -148 -39 -29 -43 -36 -40 -68 2 -25 11 -42 29 -55 l26 -20 79 54 c104 71 294 141 294 109 0 -5 -21 -14 -47 -21 -103 -25 -302 -135 -303 -166 0 -10 112 -114 123 -114 2 0 34 20 71 45 37 25 92 52 122 61 58 17 59 17 69 78 9 51 87 132 139 141 l36 7 0 63 c0 49 -4 66 -20 80 -24 22 -25 34 -4 63 17 24 53 29 72 10z m194 -73 c162 -34 331 -109 459 -205 109 -81 279 -275 279 -316 0 -7 -12 -16 -27 -22 -27 -9 -30 -6 -62 49 -18 31 -61 87 -95 123 -70 75 -99 84 -142 41 l-25 -25 66 -74 c80 -89 138 -178 123 -187 -7 -4 -26 17 -47 52 -47 77 -138 179 -159 179 -10 0 -42 -24 -71 -54 l-54 -55 58 -62 c50 -55 55 -64 39 -70 -15 -5 -31 7 -71 50 l-51 56 -44 -42 c-24 -24 -47 -43 -51 -43 -18 0 -3 28 33 64 l40 40 -27 22 c-26 21 -115 65 -155 78 -20 6 -25 36 -5 36 19 0 138 -59 174 -86 17 -13 35 -24 40 -24 5 0 35 26 67 59 l58 59 -48 36 c-55 42 -163 96 -244 121 -65 21 -84 35 -49 35 59 0 202 -64 302 -134 l59 -41 29 33 c51 57 38 85 -69 147 -125 74 -288 128 -444 150 -27 3 -48 10 -48 16 0 14 80 11 162 -6z m-1169 -615 c-4 -16 -14 -20 -49 -20 -48 0 -52 6 -29 50 l15 29 34 -20 c25 -15 33 -25 29 -39z m1971 3 c7 -22 4 -23 -38 -23 -39 0 -46 3 -46 20 0 13 11 25 33 33 34 15 38 12 51 -30z m-1979 -155 c113 -60 157 -195 101 -314 -65 -141 -244 -179 -358 -76 -115 104 -101 303 27 382 63 39 164 42 230 8z m-560 -115 l90 -137 3 137 3 137 49 0 50 0 0 -230 0 -230 -44 0 -43 0 -89 135 c-49 74 -92 135 -96 135 -5 0 -8 -61 -8 -135 l0 -135 -45 0 -45 0 0 230 0 230 43 0 42 0 90 -137z m808 -30 c30 -91 56 -162 59 -157 3 5 29 80 57 167 l53 157 44 0 c28 0 44 -4 44 -12 0 -7 -34 -111 -76 -230 l-77 -218 -49 0 c-56 0 -43 -22 -123 205 -29 83 -62 174 -74 203 l-21 52 55 0 54 0 54 -167z m543 -43 c110 -278 105 -250 45 -250 l-49 0 -17 50 -17 51 -90 -3 -90 -3 -17 -45 c-16 -44 -17 -45 -65 -48 -43 -3 -48 -1 -42 15 4 10 35 90 68 178 33 88 71 184 84 213 l23 53 43 -3 43 -3 81 -205z m672 163 l3 -43 -65 0 -66 0 0 -185 0 -185 -45 0 -45 0 0 185 0 185 -65 0 -65 0 0 45 0 45 173 -2 172 -3 3 -42z m332 2 l0 -45 -100 0 -100 0 0 -50 0 -50 90 0 90 0 0 -40 0 -40 -90 0 -90 0 0 -55 0 -55 105 0 105 0 0 -40 0 -40 -150 0 -150 0 0 230 0 230 145 0 145 0 0 -45z m345 26 c22 -10 50 -30 63 -44 l23 -25 -35 -27 -36 -27 -30 25 c-42 36 -82 42 -127 20 -76 -38 -103 -124 -64 -205 38 -79 122 -102 194 -53 39 27 58 25 87 -10 28 -33 -85 -105 -166 -105 -83 0 -170 58 -205 135 -22 48 -25 151 -6 198 49 115 189 170 302 118z m223 -78 l3 -93 84 0 85 0 0 96 0 95 48 -3 47 -3 3 -227 2 -228 -50 0 -50 0 0 95 0 95 -85 0 -85 0 0 -95 0 -95 -50 0 -50 0 0 231 0 230 48 -3 47 -3 3 -92z m-1238 -173 l0 -40 -115 0 -115 0 0 40 0 40 115 0 115 0 0 -40z m-1665 -409 c22 -10 46 -26 54 -35 13 -15 11 -20 -12 -43 -25 -26 -27 -26 -46 -9 -11 10 -40 21 -65 23 -42 5 -48 3 -81 -30 -31 -31 -35 -41 -35 -87 0 -46 4 -56 34 -86 41 -41 97 -47 139 -14 31 24 36 24 67 0 l25 -19 -25 -26 c-83 -89 -245 -63 -301 47 -26 50 -28 141 -5 185 49 96 158 136 251 94z m363 3 c81 -34 124 -97 123 -185 0 -64 -15 -100 -58 -141 -100 -95 -251 -68 -315 56 -31 60 -22 152 18 203 58 74 152 101 232 67z m338 -101 l79 -118 5 115 5 115 38 3 37 3 0 -195 0 -196 -37 0 c-37 0 -40 3 -113 111 l-75 111 -3 -111 -3 -111 -44 0 -45 0 0 195 0 195 38 0 c38 0 40 -2 118 -117z m447 103 c18 -8 41 -21 52 -29 20 -15 20 -16 -4 -41 -28 -30 -38 -32 -61 -11 -28 25 -73 29 -98 8 -37 -29 -19 -50 62 -75 90 -27 126 -60 126 -116 0 -101 -126 -155 -237 -101 -59 29 -72 54 -42 85 22 23 22 23 46 4 55 -43 134 -46 149 -5 10 25 -15 45 -79 62 -107 30 -153 100 -113 172 30 53 130 77 199 47z m217 -129 c5 -131 6 -140 29 -158 48 -39 119 -11 123 49 1 15 2 77 2 137 l1 110 40 0 40 0 0 -145 c0 -133 -2 -148 -23 -181 -55 -90 -209 -91 -268 -2 -18 27 -22 51 -26 175 -3 79 -4 147 -1 151 3 4 21 7 41 5 l37 -3 5 -138z m402 -14 l3 -158 88 -3 87 -3 0 -34 0 -35 -130 0 -130 0 0 195 0 195 40 0 39 0 3 -157z m516 115 l3 -38 -60 0 -61 0 0 -155 0 -155 -40 0 -39 0 -3 153 -3 152 -57 3 -58 3 0 40 0 39 158 -2 157 -3 3 -37z m130 -155 c2 -151 0 -193 -10 -194 -7 -1 -20 -2 -28 -3 -8 -1 -23 2 -32 7 -16 7 -18 26 -18 191 0 100 3 186 7 190 4 4 23 6 43 4 l35 -3 3 -192z m238 80 l79 -118 5 115 5 115 38 3 37 3 0 -195 0 -196 -38 0 c-38 0 -40 2 -118 116 l-79 117 -3 -116 -3 -115 -28 -4 c-51 -8 -51 -9 -51 198 l0 194 38 0 c38 0 40 -2 118 -117z m489 98 c22 -10 48 -27 58 -39 18 -19 17 -20 -12 -41 l-30 -21 -33 20 c-39 24 -69 25 -108 5 -102 -53 -61 -225 54 -225 42 0 76 21 76 47 0 21 -4 23 -45 23 -45 0 -45 0 -45 35 l0 35 85 0 85 0 0 -73 c0 -83 -12 -102 -82 -132 -128 -53 -268 43 -268 184 0 87 37 146 115 182 51 24 99 24 150 0z m-2782 -542 c100 -228 310 -452 541 -575 183 -97 326 -134 546 -141 240 -8 414 31 617 137 183 95 340 232 445 388 51 75 138 240 138 261 0 6 5 11 10 11 17 0 12 -19 -28 -104 -105 -222 -261 -396 -476 -530 -251 -157 -572 -220 -873 -171 -398 64 -761 336 -923 689 -47 105 -52 118 -40 114 6 -2 25 -37 43 -79z m177 72 c0 -5 3 -16 6 -24 3 -9 -2 -16 -13 -20 -10 -2 -26 -8 -35 -12 -12 -5 -21 2 -32 24 -9 16 -16 32 -16 36 0 3 20 5 45 5 25 0 45 -4 45 -9z m155 -11 c9 -28 115 -168 158 -209 l36 -34 62 60 63 61 -48 53 c-61 68 -73 89 -49 89 10 0 38 -25 62 -55 24 -30 47 -55 50 -55 4 0 25 18 46 40 64 65 78 50 18 -20 l-37 -43 24 -19 c38 -30 105 -68 159 -89 l49 -18 26 39 c77 117 239 132 328 31 18 -21 38 -45 43 -54 9 -15 15 -15 69 8 63 26 166 90 166 104 0 4 -16 23 -35 42 -32 31 -45 59 -28 59 4 0 26 -18 49 -41 l42 -41 38 42 c22 23 43 48 47 56 9 15 47 20 47 6 0 -5 -26 -37 -57 -72 l-57 -63 59 -54 c33 -29 65 -53 72 -53 18 0 109 107 156 182 23 37 48 68 55 68 29 0 -59 -133 -150 -226 l-49 -51 36 -31 c20 -18 42 -32 50 -32 36 0 170 158 237 280 31 56 35 60 71 60 20 0 37 -4 37 -8 0 -14 -65 -117 -124 -195 -139 -185 -357 -338 -594 -417 -112 -37 -182 -48 -182 -28 0 9 21 18 62 27 126 26 352 132 424 198 32 30 30 63 -5 97 l-29 28 -65 -46 c-65 -46 -207 -118 -259 -131 -20 -5 -28 -3 -28 6 0 8 29 24 68 37 82 29 174 79 225 124 l38 33 -59 58 -59 59 -66 -45 c-37 -25 -93 -56 -127 -68 -59 -21 -60 -23 -60 -59 0 -62 -30 -130 -80 -182 -25 -26 -52 -48 -59 -48 -15 0 -12 4 50 86 70 92 77 166 24 245 -74 112 -234 100 -298 -24 -58 -113 28 -257 155 -257 l35 0 -10 -45 c-9 -40 -8 -48 10 -68 28 -31 35 -55 21 -80 -15 -29 -27 -37 -60 -37 -29 0 -58 31 -58 63 0 10 11 29 25 43 17 17 25 36 25 59 0 29 -4 34 -29 40 -16 3 -50 19 -76 36 -51 33 -78 81 -90 162 -4 32 -12 50 -23 53 -40 12 -112 49 -170 86 l-63 41 -55 -54 c-30 -29 -54 -59 -54 -65 0 -27 149 -116 260 -155 68 -23 88 -35 77 -45 -16 -16 -212 70 -297 130 -70 50 -68 49 -95 20 -37 -40 -33 -76 12 -113 78 -64 290 -158 411 -181 43 -9 62 -17 62 -27 0 -12 -9 -14 -47 -8 -115 16 -314 100 -453 190 -84 54 -219 181 -286 270 l-53 70 31 16 32 16 38 -59 c47 -73 158 -188 181 -188 9 0 31 13 49 29 l33 30 -51 53 c-97 99 -181 228 -150 228 8 0 18 -9 21 -20z m815 -16 c0 -15 -6 -24 -15 -24 -15 0 -21 40 -9 53 12 11 24 -3 24 -29z m21 -229 c25 -14 47 -57 42 -85 0 -3 -3 -17 -7 -32 -5 -21 -3 -28 9 -28 21 0 19 -17 -4 -30 -13 -7 -22 -7 -26 0 -3 5 -21 10 -40 10 -39 0 -92 39 -97 73 -6 38 12 74 45 91 40 19 41 19 78 1z"/> <path d="M2283 3173 c-16 -6 -17 -39 -2 -49 6 -3 18 1 27 10 14 14 14 18 2 30 -8 7 -21 12 -27 9z"/> <path d="M2220 2928 c-106 -54 -129 -188 -47 -277 65 -71 187 -67 250 8 74 89 52 211 -48 268 -51 29 -65 29 -65 -2 0 -18 5 -25 19 -25 31 0 80 -48 91 -89 23 -87 -42 -171 -134 -171 -72 0 -140 92 -122 164 9 38 53 84 86 91 23 5 30 12 30 31 0 30 -4 30 -60 2z"/> <path d="M2310 2873 c0 -9 11 -26 25 -38 57 -47 31 -135 -41 -135 -73 0 -100 79 -44 128 55 49 27 74 -29 26 -102 -85 14 -245 129 -177 76 44 70 157 -10 198 -28 14 -30 14 -30 -2z"/> <path d="M2262 2814 c-24 -17 -30 -62 -10 -82 31 -31 98 0 98 46 0 20 -33 52 -55 52 -6 0 -21 -7 -33 -16z"/> <path d="M1193 2279 c-40 -12 -80 -59 -89 -104 -11 -59 4 -105 47 -148 38 -38 41 -39 94 -35 66 6 106 37 124 99 19 63 -8 146 -57 176 -29 17 -83 23 -119 12z"/> <path d="M1980 2183 c-13 -38 -25 -74 -28 -80 -3 -10 12 -13 57 -13 l61 0 -27 73 c-14 39 -29 75 -33 80 -3 4 -17 -23 -30 -60z"/> <path d="M1034 1611 c-30 -19 -54 -64 -54 -103 0 -35 32 -88 61 -103 79 -41 169 15 169 105 0 94 -97 149 -176 101z"/> <path d="M2267 583 c-4 -3 -7 -19 -7 -34 0 -37 34 -49 62 -21 16 16 18 23 9 41 -11 20 -50 29 -64 14z"/> <path d="M2246 934 c-46 -46 18 -134 75 -103 41 21 43 86 5 111 -19 13 -64 9 -80 -8z"/> </g> </svg> 